<svg width="20" height="10" viewBox="0 0 20 10" fill="none" xmlns="http://www.w3.org/2000/svg">
<path d="M19.2187 4.21875H2.6735L5.41428 1.49125C5.7201 1.18687 5.72127 0.692224 5.4169 0.386403C5.11252 0.0805441 4.61784 0.0794115 4.31202 0.383747L0.229828 4.44625C0.229555 4.44648 0.229359 4.44676 0.229125 4.44699C-0.0759141 4.75136 -0.0768907 5.24761 0.229047 5.55301C0.22932 5.55324 0.229516 5.55351 0.22975 5.55375L4.31194 9.61625C4.61772 9.92054 5.11241 9.91949 5.41682 9.61359C5.7212 9.30777 5.72002 8.81312 5.4142 8.50875L2.6735 5.78125H19.2187C19.6502 5.78125 20 5.43148 20 5C20 4.56851 19.6502 4.21875 19.2187 4.21875Z" fill="#8F9BB1"/>
</svg>
